<svg width="24" height="24" viewBox="0 0 24 24" fill="none" xmlns="http://www.w3.org/2000/svg">
<path fill-rule="evenodd" clip-rule="evenodd" d="M8.87575 4L7.9267 5.95234C7.7426 6.33105 7.35847 6.57143 6.93739 6.57143H2.99997V20H21V6.57143H17.0625C16.6415 6.57143 16.2573 6.33105 16.0732 5.95234L15.1242 4H8.87575ZM7.32324 2.61909C7.50734 2.24038 7.89147 2 8.31255 2H15.6874C16.1085 2 16.4926 2.24038 16.6767 2.61909L17.6258 4.57143H21.9C22.5075 4.57143 23 5.06392 23 5.67143V20.9C23 21.5075 22.5075 22 21.9 22H2.09997C1.49246 22 0.999969 21.5075 0.999969 20.9V5.67143C0.999969 5.06393 1.49245 4.57143 2.09997 4.57143H6.37419L7.32324 2.61909Z" fill="#333333"/>
<path fill-rule="evenodd" clip-rule="evenodd" d="M12 10.5C10.6193 10.5 9.49997 11.6193 9.49997 13C9.49997 14.3807 10.6193 15.5 12 15.5C13.3807 15.5 14.5 14.3807 14.5 13C14.5 11.6193 13.3807 10.5 12 10.5ZM7.49997 13C7.49997 10.5147 9.51469 8.5 12 8.5C14.4853 8.5 16.5 10.5147 16.5 13C16.5 15.4853 14.4853 17.5 12 17.5C9.51469 17.5 7.49997 15.4853 7.49997 13Z" fill="#333333"/>
</svg>
