<svg width="24" height="24" viewBox="0 0 24 24" fill="none" xmlns="http://www.w3.org/2000/svg">
<path fill-rule="evenodd" clip-rule="evenodd" d="M8.31258 2C7.8915 2 7.50737 2.24038 7.32327 2.61909L6.37422 4.57143H2.1C1.49248 4.57143 1 5.06393 1 5.67143V20.9C1 21.5075 1.49249 22 2.1 22H21.9C22.5075 22 23 21.5075 23 20.9V5.67143C23 5.06392 22.5075 4.57143 21.9 4.57143H17.6258L16.6767 2.61909C16.4926 2.24038 16.1085 2 15.6874 2H8.31258ZM12 9C9.79086 9 8 10.7909 8 13C8 15.2091 9.79086 17 12 17C14.2091 17 16 15.2091 16 13C16 10.7909 14.2091 9 12 9Z" fill="#333333"/>
</svg>
