<svg width="24" height="24" viewBox="0 0 24 24" fill="none" xmlns="http://www.w3.org/2000/svg">
<path d="M19.6364 19.2067L18.9092 18.5202L18.6364 18.8092V19.2067H19.6364ZM16.8905 21.2939L17.1396 20.3254L16.7656 20.2293L16.4241 20.4094L16.8905 21.2939ZM19.6364 22L19.3873 22.9685L20.6364 23.2897V22H19.6364ZM21.5 12C21.5 14.5249 20.5163 16.818 18.9092 18.5202L20.3635 19.8932C22.3071 17.8345 23.5 15.0555 23.5 12H21.5ZM12 2.5C17.2467 2.5 21.5 6.75329 21.5 12H23.5C23.5 5.64873 18.3513 0.5 12 0.5V2.5ZM2.5 12C2.5 6.75329 6.75329 2.5 12 2.5V0.5C5.64873 0.5 0.5 5.64873 0.5 12H2.5ZM12 21.5C6.75329 21.5 2.5 17.2467 2.5 12H0.5C0.5 18.3513 5.64873 23.5 12 23.5V21.5ZM16.4241 20.4094C15.1039 21.1055 13.5995 21.5 12 21.5V23.5C13.9323 23.5 15.7561 23.0226 17.357 22.1785L16.4241 20.4094ZM16.6415 22.2624L19.3873 22.9685L19.8854 21.0315L17.1396 20.3254L16.6415 22.2624ZM20.6364 22V19.2067H18.6364V22H20.6364Z" fill="currentColor"/>
<path d="M7 10.5H17" stroke="currentColor" stroke-width="2"/>
<path d="M7 14.5H13" stroke="currentColor" stroke-width="2"/>
</svg>
