<svg width="24" height="24" viewBox="0 0 24 24" fill="none" xmlns="http://www.w3.org/2000/svg">
<path fill-rule="evenodd" clip-rule="evenodd" d="M20.9186 3.0801C21.4263 3.58778 21.4263 4.4109 20.9186 4.91858L4.91858 20.9186C4.4109 21.4263 3.58778 21.4263 3.0801 20.9186C2.57242 20.4109 2.57242 19.5878 3.0801 19.0801L19.0801 3.0801C19.5878 2.57242 20.4109 2.57242 20.9186 3.0801Z" fill="currentColor"/>
<path fill-rule="evenodd" clip-rule="evenodd" d="M3.0801 3.0801C3.58778 2.57242 4.4109 2.57242 4.91858 3.0801L20.9186 19.0801C21.4263 19.5878 21.4263 20.4109 20.9186 20.9186C20.4109 21.4263 19.5878 21.4263 19.0801 20.9186L3.0801 4.91858C2.57242 4.4109 2.57242 3.58778 3.0801 3.0801Z" fill="currentColor"/>
</svg>
