<svg width="24" height="24" viewBox="0 0 24 24" fill="none" xmlns="http://www.w3.org/2000/svg">
<path d="M23.58 13.9866L23.2835 14.3605C22.7411 15.0444 21.936 16.0136 20.2282 16.5866C18.5756 17.1411 16.1801 17.2929 12.4928 16.6822C11.0846 16.4489 9.46771 16.5903 7.97987 16.8881C6.49942 17.1845 5.21964 17.6207 4.51685 17.92L3.42526 18.3849L0.366196 5.46464L0.947695 5.07938C2.05269 4.3473 3.71777 3.65766 5.47616 3.23098C7.22999 2.8054 9.20078 2.61091 10.8994 2.97921C13.1507 3.46735 14.7779 3.30473 16.0472 2.90487C17.2928 2.51247 18.2476 1.87932 19.2118 1.23983L19.3227 1.16632L20.5339 0.363892L23.58 13.9866Z" fill="#333333"/>
<path fill-rule="evenodd" clip-rule="evenodd" d="M3.77513 15.5256C4.31327 15.4014 4.8502 15.737 4.97438 16.2751L6.47438 22.7751C6.59857 23.3133 6.26299 23.8502 5.72485 23.9744C5.18671 24.0986 4.64979 23.763 4.5256 23.2248L3.0256 16.7248C2.90142 16.1867 3.23699 15.6498 3.77513 15.5256Z" fill="#333333"/>
</svg>
