<svg width="24" height="24" viewBox="0 0 24 24" fill="none" xmlns="http://www.w3.org/2000/svg">
<path fill-rule="evenodd" clip-rule="evenodd" d="M12 3.41417L4.41422 11H5.10834C5.71585 11 6.20834 11.4925 6.20834 12.1V21H9.00001V16.1C9.00001 15.4924 9.49249 15 10.1 15H13.9C14.5075 15 15 15.4924 15 16.1V21H17.7917V12.1C17.7917 11.4925 18.2842 11 18.8917 11H19.5858L12 3.41417ZM11.2222 1.36356C11.6518 0.933986 12.3482 0.933989 12.7778 1.36356L22.5364 11.1221C23.2294 11.8151 22.7386 13 21.7586 13H19.7917V21.9C19.7917 22.5075 19.2992 23 18.6917 23H14.1C13.4925 23 13 22.5075 13 21.9V17H11V21.9C11 22.5075 10.5075 23 9.90001 23H5.30834C4.70082 23 4.20834 22.5075 4.20834 21.9V13H2.24143C1.26143 13 0.770648 11.8151 1.46361 11.1221L11.2222 1.36356Z" fill="#333333"/>
</svg>
