<svg width="24" height="24" viewBox="0 0 24 24" fill="none" xmlns="http://www.w3.org/2000/svg">
<mask id="path-1-inside-1_46_1678" fill="white">
<path fill-rule="evenodd" clip-rule="evenodd" d="M12 24C12 24 21.5 16.947 21.5 9.57009C21.5 4.28468 17.2467 0 12 0C6.75329 0 2.5 4.28468 2.5 9.57009C2.5 16.947 12 24 12 24ZM12 12.5C13.6569 12.5 15 11.1569 15 9.5C15 7.84315 13.6569 6.5 12 6.5C10.3431 6.5 9 7.84315 9 9.5C9 11.1569 10.3431 12.5 12 12.5Z"/>
</mask>
<path d="M12 24L10.8078 25.6058L12 26.4909L13.1922 25.6058L12 24ZM19.5 9.57009C19.5 12.4816 17.5676 15.608 15.2519 18.2264C14.1363 19.4877 13.0147 20.5388 12.1701 21.2752C11.7492 21.6422 11.4006 21.9278 11.1608 22.1192C11.041 22.2148 10.9486 22.2866 10.8882 22.333C10.858 22.3562 10.8358 22.3731 10.8222 22.3833C10.8154 22.3885 10.8108 22.392 10.8083 22.3938C10.8071 22.3947 10.8065 22.3952 10.8064 22.3952C10.8063 22.3953 10.8064 22.3952 10.8067 22.395C10.8068 22.3949 10.8071 22.3947 10.8071 22.3947C10.8075 22.3944 10.8078 22.3942 12 24C13.1922 25.6058 13.1926 25.6055 13.1931 25.6052C13.1933 25.605 13.1938 25.6046 13.1942 25.6043C13.195 25.6037 13.196 25.603 13.1971 25.6022C13.1993 25.6005 13.2021 25.5985 13.2054 25.596C13.2121 25.5909 13.2211 25.5842 13.2323 25.5757C13.2546 25.5589 13.2858 25.5352 13.3252 25.505C13.4039 25.4445 13.5156 25.3576 13.6556 25.2459C13.9353 25.0227 14.329 24.6997 14.7987 24.2902C15.7353 23.4737 16.9887 22.3004 18.2481 20.8764C20.6824 18.124 23.5 14.0355 23.5 9.57009H19.5ZM12 2C16.1283 2 19.5 5.37536 19.5 9.57009H23.5C23.5 3.19399 18.3651 -2 12 -2V2ZM4.5 9.57009C4.5 5.37536 7.8717 2 12 2V-2C5.63489 -2 0.5 3.19399 0.5 9.57009H4.5ZM12 24C13.1922 22.3942 13.1925 22.3944 13.1929 22.3947C13.1929 22.3947 13.1932 22.3949 13.1933 22.395C13.1936 22.3952 13.1937 22.3953 13.1936 22.3952C13.1935 22.3952 13.1929 22.3947 13.1917 22.3938C13.1892 22.392 13.1846 22.3885 13.1778 22.3833C13.1642 22.3731 13.142 22.3562 13.1118 22.333C13.0514 22.2866 12.959 22.2148 12.8392 22.1192C12.5994 21.9278 12.2508 21.6422 11.8299 21.2752C10.9853 20.5388 9.86367 19.4877 8.74813 18.2264C6.43238 15.608 4.5 12.4816 4.5 9.57009H0.5C0.5 14.0355 3.31762 18.124 5.75187 20.8764C7.01133 22.3004 8.26472 23.4737 9.20132 24.2902C9.67104 24.6997 10.0647 25.0227 10.3444 25.2459C10.4844 25.3576 10.5961 25.4445 10.6748 25.505C10.7142 25.5352 10.7454 25.5589 10.7677 25.5757C10.7789 25.5842 10.7879 25.5909 10.7946 25.596C10.7979 25.5985 10.8007 25.6005 10.8029 25.6022C10.804 25.603 10.805 25.6037 10.8058 25.6043C10.8062 25.6046 10.8067 25.605 10.8069 25.6052C10.8074 25.6055 10.8078 25.6058 12 24ZM13 9.5C13 10.0523 12.5523 10.5 12 10.5V14.5C14.7614 14.5 17 12.2614 17 9.5H13ZM12 8.5C12.5523 8.5 13 8.94771 13 9.5H17C17 6.73858 14.7614 4.5 12 4.5V8.5ZM11 9.5C11 8.94772 11.4477 8.5 12 8.5V4.5C9.23858 4.5 7 6.73858 7 9.5H11ZM12 10.5C11.4477 10.5 11 10.0523 11 9.5H7C7 12.2614 9.23858 14.5 12 14.5V10.5Z" fill="black" mask="url(#path-1-inside-1_46_1678)"/>
</svg>
