<svg width="24" height="24" viewBox="0 0 24 24" fill="none" xmlns="http://www.w3.org/2000/svg">
<path d="M22 12C22 17.5228 17.5228 22 12 22V24C18.6274 24 24 18.6274 24 12H22ZM12 22C6.47715 22 2 17.5228 2 12H0C0 18.6274 5.37258 24 12 24V22ZM2 12C2 6.47715 6.47715 2 12 2V0C5.37258 0 0 5.37258 0 12H2ZM12 2C17.5228 2 22 6.47715 22 12H24C24 5.37258 18.6274 0 12 0V2Z" fill="#333333"/>
<circle cx="12" cy="8.5" r="3.5" fill="#333333"/>
<path d="M17.5 17.5H6.5C6.5 15.8772 6.77505 14.1524 8.0806 13.1886C8.94063 12.5537 10.2052 12 12 12C13.7948 12 15.0594 12.5537 15.9194 13.1886C17.2249 14.1524 17.5 15.8772 17.5 17.5Z" fill="#333333"/>
</svg>
