<svg width="24" height="24" viewBox="0 0 24 24" fill="none" xmlns="http://www.w3.org/2000/svg">
<path fill-rule="evenodd" clip-rule="evenodd" d="M9 3C5.68629 3 3 5.68629 3 9C3 12.3137 5.68629 15 9 15C12.3137 15 15 12.3137 15 9C15 5.68629 12.3137 3 9 3ZM1 9C1 4.58172 4.58172 1 9 1C13.4183 1 17 4.58172 17 9C17 13.4183 13.4183 17 9 17C4.58172 17 1 13.4183 1 9Z" fill="currentColor"/>
<path d="M14 15.1C14 14.4925 14.4925 14 15.1 14H16.9445C17.2357 14 17.515 14.1155 17.7212 14.3211L22.6346 19.2206C23.0679 19.6526 23.0653 20.3552 22.6288 20.7841L20.7364 22.6436C20.3046 23.0678 19.6113 23.0635 19.1848 22.634L14.3194 17.7338C14.1148 17.5278 14 17.2492 14 16.9588V15.1Z" fill="currentColor"/>
</svg>
