<svg width="24" height="24" viewBox="0 0 24 24" fill="none" xmlns="http://www.w3.org/2000/svg">
<path fill-rule="evenodd" clip-rule="evenodd" d="M11.9798 1C11.3284 1 10.7947 1.07204 10.4915 1.11297L10.4357 1.12049L10.3991 1.12825C9.83053 1.24874 9.39044 1.67797 9.26557 2.25428L9.26306 2.26586L8.94172 3.9395L8.38292 4.27107L6.95854 3.34177L6.95161 3.33741C6.47617 3.0382 5.83318 3.03001 5.33959 3.38332C5.049 3.59086 4.6277 3.93523 4.1701 4.40232C3.68079 4.90092 3.3651 5.3162 3.18145 5.5735L3.17367 5.58439L3.16619 5.59549C2.80805 6.12676 2.85526 6.80141 3.23569 7.27806L4.21441 8.562L4.00503 9.13367L2.27826 9.2635L2.21273 9.27738C1.61133 9.40483 1.16667 9.88702 1.08021 10.4855L1.07934 10.4919C1.03197 10.8354 0.988234 11.3676 1.00287 12.0082C1.01799 12.711 1.10906 13.2388 1.17059 13.5431C1.29572 14.1618 1.78343 14.6092 2.38787 14.6946L2.39683 14.6958L4.07554 14.9021L4.42101 15.5077L3.5165 16.9687L3.51106 16.978C3.21983 17.4717 3.23597 18.1211 3.61323 18.5969C3.82266 18.8669 4.18086 19.2772 4.66114 19.7234L4.67115 19.7324C5.17623 20.1891 5.59917 20.493 5.90211 20.6775C6.43238 21.0149 7.09732 20.9622 7.56855 20.584L8.8732 19.5478L9.18222 19.6363L9.4138 21.5381L9.41635 21.5545C9.49695 22.0727 9.84507 22.5313 10.3876 22.7101L10.4005 22.7142C10.7017 22.809 11.3282 23 11.9933 23C12.8329 23 13.4254 22.8654 13.798 22.7235C14.28 22.5451 14.6492 22.1076 14.7096 21.5616L14.9925 19.5733L15.1271 19.5347L16.4314 20.5707C16.9028 20.9489 17.5679 21.0016 18.0983 20.6639C18.4096 20.474 18.8309 20.1555 19.3171 19.7297L19.3267 19.721C19.8293 19.2692 20.1785 18.8483 20.3867 18.5836L20.3967 18.5709L20.4063 18.5578C20.7312 18.1161 20.8095 17.4707 20.4747 16.9412L19.579 15.4944L19.9245 14.8887L21.6032 14.6825L21.6121 14.6812C22.2006 14.5981 22.6944 14.1665 22.8266 13.5566L22.829 13.5453L22.8312 13.534C22.8901 13.2283 22.9819 12.714 22.9971 12.0087C23.0118 11.3554 22.9682 10.823 22.9207 10.4786L22.9198 10.4722C22.8367 9.89747 22.4187 9.41589 21.8402 9.27318C21.7733 9.25667 21.7124 9.24847 21.6609 9.2446L20.0084 9.12036L19.7991 8.54869L20.7779 7.26462C21.1798 6.76054 21.1752 6.06445 20.8253 5.56958C20.6248 5.27422 20.3068 4.87579 19.8538 4.39982L19.8488 4.39459L19.8438 4.38944C19.3867 3.92284 18.9658 3.57867 18.6752 3.37096C18.1814 3.01668 17.5377 3.02461 17.0619 3.32409L17.0536 3.32931L15.5732 4.30194L14.9534 3.97469L14.7008 2.29877L14.694 2.26759C14.5916 1.79473 14.2129 1.23149 13.5206 1.12051C13.1694 1.05569 12.6549 1 11.9798 1ZM12 8.5C10.067 8.5 8.5 10.067 8.5 12C8.5 13.933 10.067 15.5 12 15.5C13.933 15.5 15.5 13.933 15.5 12C15.5 10.067 13.933 8.5 12 8.5Z" fill="currentColor"/>
</svg>
