<svg width="24" height="24" viewBox="0 0 24 24" fill="none" xmlns="http://www.w3.org/2000/svg">
<path fill-rule="evenodd" clip-rule="evenodd" d="M10.4915 1.11297C10.7947 1.07204 11.3284 1 11.9798 1C12.6549 1 13.1694 1.05569 13.5206 1.12051C14.2129 1.23149 14.5916 1.79473 14.694 2.26759L14.7008 2.29877L14.9534 3.97469L15.5732 4.30194L17.0536 3.32931L17.0619 3.32409C17.5377 3.02461 18.1814 3.01668 18.6752 3.37096C18.9658 3.57867 19.3867 3.92284 19.8438 4.38944L19.8488 4.39459L19.8538 4.39982C20.3068 4.87579 20.6248 5.27422 20.8253 5.56958C21.1752 6.06445 21.1798 6.76054 20.7779 7.26462L19.7991 8.54869L20.0084 9.12036L21.6609 9.2446C21.7124 9.24847 21.7733 9.25667 21.8402 9.27318C22.4187 9.41589 22.8367 9.89747 22.9198 10.4722L22.9207 10.4786C22.9682 10.823 23.0118 11.3554 22.9971 12.0087C22.9819 12.714 22.8901 13.2283 22.8312 13.534L22.829 13.5453L22.8266 13.5566C22.6944 14.1665 22.2006 14.5981 21.6121 14.6812L21.6032 14.6825L19.9245 14.8887L19.579 15.4944L20.4747 16.9412C20.8095 17.4707 20.7312 18.1161 20.4063 18.5578L20.3967 18.5709L20.3867 18.5836C20.1785 18.8483 19.8293 19.2692 19.3267 19.721L19.3171 19.7297C18.8309 20.1555 18.4096 20.474 18.0983 20.6639C17.5679 21.0016 16.9028 20.9489 16.4314 20.5707L15.1271 19.5347L14.9925 19.5733L14.7096 21.5616C14.6492 22.1076 14.28 22.5451 13.798 22.7235C13.4254 22.8654 12.8329 23 11.9933 23C11.3282 23 10.7017 22.809 10.4005 22.7142L10.3876 22.7101C9.84507 22.5313 9.49695 22.0727 9.41635 21.5545L9.4138 21.5381L9.18222 19.6363L8.8732 19.5478L7.56855 20.584C7.09732 20.9622 6.43238 21.0149 5.90211 20.6775C5.59917 20.493 5.17623 20.1891 4.67115 19.7324L4.66114 19.7234C4.18086 19.2772 3.82266 18.8669 3.61323 18.5969C3.23597 18.1211 3.21983 17.4717 3.51106 16.978L3.5165 16.9687L4.42101 15.5077L4.07554 14.9021L2.39683 14.6958L2.38787 14.6946C1.78343 14.6092 1.29572 14.1618 1.17059 13.5431C1.10906 13.2388 1.01799 12.711 1.00287 12.0082C0.988234 11.3676 1.03197 10.8354 1.07934 10.4919L1.08021 10.4855C1.16667 9.88702 1.61133 9.40483 2.21273 9.27738L2.27826 9.2635L4.00503 9.13367L4.21441 8.562L3.23569 7.27806C2.85526 6.80141 2.80805 6.12676 3.16619 5.59549L3.17367 5.58439L3.18145 5.5735C3.3651 5.3162 3.68079 4.90092 4.1701 4.40232C4.6277 3.93523 5.049 3.59086 5.33959 3.38332C5.83318 3.03001 6.47617 3.0382 6.95161 3.33741L6.95854 3.34177L8.38292 4.27107L8.94172 3.9395L9.26306 2.26586L9.26557 2.25428C9.39044 1.67797 9.83053 1.24874 10.3991 1.12825L10.4357 1.12049L10.4915 1.11297ZM11.1497 3.04654L10.8295 4.71427C10.7702 5.02338 10.5812 5.29225 10.3106 5.45287L8.92169 6.27697C8.56117 6.49089 8.1104 6.4813 7.75931 6.25223L6.20726 5.23964C6.03366 5.38356 5.82399 5.57201 5.5984 5.80231C5.38139 6.02342 5.20788 6.22261 5.07291 6.38915L6.1039 7.74168C6.3315 8.04026 6.3911 8.4343 6.26199 8.78684L5.68362 10.366C5.5352 10.7712 5.16353 11.0522 4.73319 11.0846L3.01701 11.2136C3.00343 11.4255 2.99585 11.6796 3.00238 11.9637L3.00241 11.9652C3.0092 12.2809 3.03542 12.5488 3.06526 12.7629L4.76766 12.972C5.11242 13.0144 5.41692 13.2171 5.58902 13.5188L6.42335 14.9815C6.62305 15.3316 6.61529 15.7629 6.40314 16.1056L5.43862 17.6635C5.58799 17.8314 5.78267 18.035 6.01745 18.2534C6.26181 18.474 6.47243 18.6422 6.64172 18.766L7.99184 17.6937C8.26994 17.4728 8.63756 17.3998 8.97897 17.4976L10.3065 17.8779C10.7313 17.9997 11.042 18.3638 11.0955 18.8024L11.3517 20.907C11.5614 20.9597 11.785 21 11.9933 21C12.3361 21 12.595 20.97 12.7785 20.9355L13.0946 18.7142C13.1556 18.2849 13.4632 17.9316 13.88 17.8119L15.0205 17.4845C15.362 17.3864 15.7299 17.4594 16.0082 17.6804L17.3555 18.7506C17.5252 18.6242 17.7402 18.4518 17.9943 18.2295C18.2238 18.0227 18.4122 17.8241 18.5625 17.652L17.5969 16.0922C17.3847 15.7496 17.377 15.3183 17.5766 14.9682L18.411 13.5055C18.5831 13.2038 18.8876 13.0011 19.2323 12.9587L20.9358 12.7495C20.9655 12.536 20.9909 12.2757 20.9976 11.9652C21.0042 11.6725 20.9965 11.4132 20.9828 11.1993L19.2803 11.0713C18.8499 11.0389 18.4783 10.7579 18.3298 10.3527L17.7515 8.77352C17.6224 8.42098 17.682 8.02694 17.9096 7.72836L18.9368 6.38083C18.8052 6.21745 18.6316 6.01698 18.4101 5.78391C18.1868 5.55638 17.9794 5.36993 17.8072 5.22718L16.2272 6.26536C15.8922 6.48546 15.464 6.50592 15.1095 6.31878L13.6176 5.53106C13.3087 5.36793 13.0956 5.06775 13.0435 4.72228L12.7895 3.03685C12.5786 3.01581 12.3089 3 11.9798 3C11.6663 3 11.3866 3.02111 11.1497 3.04654ZM17.5115 4.99751L17.5088 4.99559L17.5115 4.99751Z" fill="#333333"/>
<path fill-rule="evenodd" clip-rule="evenodd" d="M12 9.99998C10.8954 9.99998 10 10.8954 10 12C10 13.1046 10.8954 14 12 14C13.1046 14 14 13.1046 14 12C14 10.8954 13.1046 9.99998 12 9.99998ZM8 12C8 9.79084 9.79086 7.99998 12 7.99998C14.2091 7.99998 16 9.79084 16 12C16 14.2091 14.2091 16 12 16C9.79086 16 8 14.2091 8 12Z" fill="#333333"/>
</svg>
