<svg width="24" height="24" viewBox="0 0 24 24" fill="none" xmlns="http://www.w3.org/2000/svg">
<path fill-rule="evenodd" clip-rule="evenodd" d="M12 4.38635L9.85444 9.03506C9.69445 9.3817 9.36617 9.62059 8.98714 9.66621L4.16128 10.2471L7.67127 13.7571C7.91904 14.0049 8.03394 14.3559 7.98066 14.7022L7.14077 20.1615L11.4761 17.8132C11.8029 17.6362 12.1971 17.6362 12.5239 17.8132L16.966 20.2193L16.3944 14.6469C16.3622 14.3331 16.4664 14.0205 16.6804 13.7886L19.9384 10.2591L15.0129 9.66621C14.6338 9.62059 14.3055 9.38169 14.1456 9.03506L12 4.38635ZM11.0012 1.77771C11.3945 0.925664 12.6055 0.925656 12.9988 1.77771L15.7509 7.74061L21.9253 8.48383C22.8163 8.59108 23.2108 9.66263 22.6021 10.3221L18.4254 14.8468L19.1293 21.7097C19.2195 22.589 18.2883 23.2102 17.5111 22.7892L12 19.804L6.49953 22.7834C5.70001 23.2165 4.75014 22.5476 4.8884 21.6489L5.93457 14.8488L1.43831 10.3526C0.789399 9.70366 1.17356 8.5923 2.08467 8.48263L8.24913 7.74061L11.0012 1.77771Z" fill="#333333"/>
</svg>
